<mxfile host="app.diagrams.net" modified="2021-07-15T13:50:07.783Z" agent="5.0 (Windows NT 10.0; Win64; x64) AppleWebKit/537.36 (KHTML, like Gecko) Chrome/91.0.4472.124 Safari/537.36" etag="WZYP-9q7vh5Ufo0CWB3q" version="14.8.6" type="github">
  <diagram id="pEVTCx3WZB2TSNcY2lzD" name="Page-1">
    <mxGraphModel dx="1279" dy="776" grid="1" gridSize="10" guides="1" tooltips="1" connect="1" arrows="1" fold="1" page="1" pageScale="1" pageWidth="827" pageHeight="1169" math="0" shadow="0">
      <root>
        <mxCell id="0" />
        <mxCell id="1" parent="0" />
        <mxCell id="E_g6gSILwJWyZIRu2qnd-1" value="Sieht man dasfdsfdsfdsfs" style="rounded=1;whiteSpace=wrap;html=1;" parent="1" vertex="1">
          <mxGeometry x="80" y="160" width="480" height="320" as="geometry" />
        </mxCell>
      </root>
    </mxGraphModel>
  </diagram>
</mxfile>
